<svg version="1" xmlns="http://www.w3.org/2000/svg" width="300" height="300" viewBox="0 0 225.000000 225.000000"><path d="M122.4 20.2l-11.3 11.1-5-4.6c-2.8-2.6-5.9-4.7-6.9-4.7-3.1 0-7.2 3.8-7.2 6.8 0 3.5 15.5 19.2 19 19.2 1.8 0 6.4-4 17.2-14.8C144 17.4 145.3 15.3 141 11c-4-4-6.5-2.8-18.6 9.2z"/><path d="M1.6 42.2C.3 44 0 47.3 0 57.3c0 12.2.1 12.9 2.5 15.2 2.1 2.2 3.3 2.5 10 2.5H20v128h-8c-6.7 0-8.3.3-10 2-2.6 2.6-2.5 5.1.1 8.4l2 2.6h216.8l2-2.6c2.6-3.3 2.7-5.8.1-8.4-1.7-1.7-3.3-2-10-2h-8V75h7.5c6.7 0 7.9-.3 10-2.5 2.4-2.3 2.5-3 2.5-15.2 0-10-.3-13.3-1.6-15.1l-1.5-2.2h-81.8l-5.2 4.6c-7.6 6.7-12.7 8.7-22.4 8.7s-14.8-2-22.4-8.7L84.9 40H3.1l-1.5 2.2zM191 139v64H34V75h157v64z"/><path d="M49.4 96.6c-2 1.9-2.4 3.1-1.9 5.2 1.4 6-2 5.7 65 5.7 56.5 0 61.6-.1 63.1-1.7 2.5-2.5 2.2-7.7-.5-10-2.2-1.7-5.5-1.8-62.8-1.8H51.9l-2.5 2.6zM49.4 121.6c-2 1.9-2.4 3.1-1.9 5.2.3 1.5 1.3 3.3 2.2 3.9 2.6 2 123.2 1.9 125.8-.1 2.7-1.9 2.4-7.4-.4-9.8-2.2-1.7-5.5-1.8-62.8-1.8H51.9l-2.5 2.6zM49.1 147.6c-1.2 1.5-2.1 3.1-2.1 3.6 0 1.4 2.1 5.2 3.4 6 .6.4 28.6.8 62.3.8h61.2l2-2.6c2.6-3.3 2.6-4.5 0-7.8l-2-2.6H51.1l-2 2.6zM49.1 172.6c-1.2 1.5-2.1 3.2-2.1 3.9 0 .7.9 2.4 2.1 3.9l2 2.6h122.8l2-2.6c2.6-3.3 2.6-4.5 0-7.8l-2-2.6H51.1l-2 2.6z"/></svg>